<svg width="166" height="181" viewBox="0 0 166 181" fill="none" xmlns="http://www.w3.org/2000/svg">
<path d="M75.318 2.11092C75.2911 0.987946 76.194 0.0605927 77.3169 0.0903015C92.3081 0.486908 107.589 5.19746 120.583 12.6143C134.17 20.3693 145.502 31.5331 153.465 45.0055C161.427 58.4779 165.743 73.7939 165.989 89.444C166.235 105.094 162.401 120.538 154.866 134.254C147.33 147.97 136.354 159.485 123.017 167.663C109.681 175.841 94.4449 180.401 78.8113 180.892C63.1777 181.384 47.6858 177.791 33.8625 170.467C20.6283 163.455 9.36069 153.255 1.06979 140.801C0.457946 139.882 0.735841 138.645 1.66787 138.054L22.9097 124.564C23.8425 123.971 25.0763 124.25 25.6984 125.163C31.2678 133.338 38.7503 140.042 47.5062 144.681C56.8519 149.632 67.3257 152.062 77.8954 151.729C88.4651 151.397 98.7658 148.314 107.782 142.785C116.799 137.256 124.22 129.471 129.315 120.198C134.409 110.925 137.001 100.483 136.835 89.9023C136.669 79.3215 133.751 68.9665 128.367 59.858C122.984 50.7495 115.322 43.2019 106.137 37.9588C97.5171 33.0389 87.8348 30.3077 77.9362 29.9898C76.8509 29.9549 75.9631 29.0919 75.9371 28.0062L75.318 2.11092Z" fill="#438AF6"/>
</svg>
