<svg width="152" height="38" viewBox="0 0 152 38" fill="none" xmlns="http://www.w3.org/2000/svg">
<path d="M13.3164 36.3358C10.7303 36.3358 8.45302 35.7107 6.44591 34.4214C4.4388 33.132 2.89487 31.4129 1.73692 29.3422C0.578974 27.2324 0 24.8881 0 22.3485C0 19.8089 0.540376 17.5037 1.65973 15.4721C2.77908 13.4013 4.32301 11.7213 6.33012 10.471C8.33723 9.22075 10.6145 8.55655 13.2392 8.55655C15.7095 8.55655 17.871 9.14261 19.7237 10.3147C21.2676 11.2134 22.4642 12.4246 23.3906 13.8702C23.7379 14.4172 23.4678 15.1204 22.8888 15.3158L21.3448 15.8237C20.9203 15.9409 20.4957 15.7846 20.2641 15.3939C19.5693 14.339 18.643 13.4795 17.485 12.8543C16.1727 12.0729 14.7059 11.6822 13.0848 11.6822C11.3093 11.6822 9.64957 12.1511 8.22143 13.0888C6.7933 14.0265 5.63535 15.3158 4.78619 16.9568C3.93702 18.5587 3.51244 20.395 3.51244 22.3876C3.51244 24.4193 3.93702 26.2556 4.82478 27.8966C5.71254 29.5375 6.87049 30.8659 8.33723 31.8427C9.80396 32.8195 11.3865 33.2883 13.162 33.2883C14.32 33.2883 15.4393 33.093 16.5201 32.6632C17.6008 32.2334 18.5272 31.6864 19.2991 31.0222C19.8395 30.5143 20.2641 29.9673 20.5729 29.4203C20.7659 29.0296 21.2291 28.8343 21.6536 28.9515L23.1976 29.4203C23.7765 29.5766 24.0467 30.2408 23.7765 30.7878C23.3134 31.6474 22.6958 32.4288 21.9238 33.1711C20.8431 34.1479 19.5693 34.9684 18.064 35.5154C16.5973 36.0624 14.9761 36.3358 13.3164 36.3358Z" fill="#222F3E"/>
<path d="M57.5886 35.2419L47.6303 10.3929C47.3601 9.76774 47.8232 9.06447 48.518 9.06447H50.0619C50.4479 9.06447 50.7953 9.29889 50.9497 9.6896L59.1711 30.866C59.3641 31.4129 60.1361 31.4129 60.3291 30.866L68.5891 9.6896C68.7435 9.33796 69.0909 9.06447 69.4769 9.06447H70.8278C71.484 9.06447 71.9472 9.76774 71.7156 10.3929L61.7572 35.2419C61.6028 35.5935 61.2554 35.8279 60.8695 35.8279H58.4378C58.0518 35.867 57.7044 35.6326 57.5886 35.2419Z" fill="#222F3E"/>
<path d="M84.2215 36.3358C81.674 36.3358 79.3967 35.7107 77.4282 34.4214C75.4211 33.1711 73.8385 31.452 72.7192 29.3422C71.5612 27.2324 70.9823 24.8881 70.9823 22.3485C70.9823 19.848 71.5226 17.5428 72.642 15.4721C73.7999 13.4013 75.3825 11.7213 77.351 10.471C79.3581 9.22075 81.5968 8.55655 84.1443 8.55655C86.769 8.55655 89.0463 9.18168 91.0148 10.471C92.9833 11.7213 94.4886 13.4013 95.5694 15.5111C96.6887 17.5819 97.2291 19.8089 97.2291 22.3095C97.2291 22.4657 97.2291 22.622 97.2291 22.7392C97.2291 23.2472 96.8045 23.6769 96.2641 23.6769H75.2281C74.8421 23.6769 74.5333 24.0286 74.6105 24.3802C74.8421 26.0212 75.3439 27.5059 76.1544 28.7952C77.0808 30.2799 78.2387 31.452 79.6669 32.3506C81.095 33.2102 82.6389 33.64 84.3373 33.64C86.0742 33.64 87.6953 33.2102 89.2006 32.3116C90.513 31.5692 91.4779 30.5925 92.1341 29.4203C92.3271 29.0687 92.7903 28.9124 93.1763 28.9905L94.2956 29.3031C94.8746 29.4594 95.1834 30.1627 94.8746 30.7097C94.3728 31.5692 93.7166 32.3897 92.8675 33.093C91.7481 34.0697 90.4358 34.8902 88.9691 35.4372C87.5795 36.0624 85.9584 36.3358 84.2215 36.3358ZM75.1895 21.1764H94.0254C93.871 19.2619 93.3693 17.5819 92.4429 16.0972C91.5165 14.5734 90.3586 13.4404 88.9305 12.6199C87.5023 11.7603 85.9198 11.3306 84.2215 11.3306C82.4845 11.3306 80.9406 11.7603 79.5125 12.6199C78.0843 13.4404 76.9264 14.6125 76 16.0972C75.2281 17.3865 74.7263 18.8322 74.5333 20.4731C74.4947 20.8248 74.8035 21.1764 75.1895 21.1764Z" fill="#222F3E"/>
<path d="M112.244 33.679C112.398 34.1478 112.167 34.6558 111.703 34.8511C111.317 35.0074 110.854 35.2027 110.275 35.4372C109.195 35.867 107.959 36.1014 106.531 36.1014C105.026 36.1014 103.752 35.6716 102.633 34.812C101.513 33.9525 100.973 32.6631 100.973 30.944V12.4636C100.973 12.1119 100.703 11.8384 100.356 11.8384H98.2712C97.7308 11.8384 97.3063 11.4087 97.3063 10.8617V10.0021C97.3063 9.45512 97.7308 9.02534 98.2712 9.02534H100.356C100.703 9.02534 100.973 8.75185 100.973 8.40021V0.976769C100.973 0.429778 101.398 0 101.938 0H103.482C104.022 0 104.447 0.429778 104.447 0.976769V8.43928C104.447 8.79092 104.717 9.06441 105.065 9.06441H109.581C110.121 9.06441 110.545 9.49419 110.545 10.0412V10.9007C110.545 11.4477 110.121 11.8775 109.581 11.8775H105.065C104.717 11.8775 104.447 12.151 104.447 12.5026V30.0454C104.524 31.0222 104.872 31.7645 105.451 32.2724C106.107 32.7022 106.84 32.9366 107.651 32.9366C108.616 32.9366 109.426 32.7804 110.198 32.4678C110.391 32.3897 110.584 32.3115 110.738 32.2334C111.24 31.9989 111.858 32.2724 112.012 32.8194L112.244 33.679Z" fill="#222F3E"/>
<path d="M126.718 33.679C126.873 34.1478 126.641 34.6558 126.178 34.8511C125.792 35.0074 125.329 35.2027 124.75 35.4372C123.669 35.867 122.434 36.1014 121.006 36.1014C119.5 36.1014 118.227 35.6716 117.107 34.812C115.988 33.9525 115.447 32.6631 115.447 30.944V12.4636C115.447 12.1119 115.177 11.8384 114.83 11.8384H112.707C112.167 11.8384 111.742 11.4087 111.742 10.8617V10.0021C111.742 9.45512 112.167 9.02534 112.707 9.02534H114.791C115.139 9.02534 115.409 8.75185 115.409 8.40021V0.976769C115.409 0.429778 115.833 0 116.374 0H117.918C118.458 0 118.883 0.429778 118.883 0.976769V8.43928C118.883 8.79092 119.153 9.06441 119.5 9.06441H124.016C124.557 9.06441 124.981 9.49419 124.981 10.0412V10.9007C124.981 11.4477 124.557 11.8775 124.016 11.8775H119.5C119.153 11.8775 118.883 12.151 118.883 12.5026V30.0454C118.96 31.0222 119.307 31.7645 119.886 32.2724C120.542 32.7022 121.276 32.9366 122.086 32.9366C123.051 32.9366 123.862 32.7804 124.634 32.4678C124.827 32.3897 125.02 32.3115 125.174 32.2334C125.676 31.9989 126.294 32.2724 126.448 32.8194L126.718 33.679Z" fill="#222F3E"/>
<path d="M138.954 36.1795C136.406 36.1795 134.129 35.5544 132.161 34.265C130.153 33.0148 128.571 31.2956 127.452 29.1858C126.294 27.076 125.715 24.7318 125.715 22.1922C125.715 19.6916 126.255 17.3865 127.374 15.3157C128.532 13.245 130.115 11.5649 132.083 10.3147C134.09 9.06439 136.329 8.40019 138.877 8.40019C141.501 8.40019 143.779 9.02532 145.747 10.3147C147.716 11.5649 149.221 13.245 150.302 15.3548C151.421 17.4255 151.961 19.6526 151.961 22.1531C151.961 22.3094 151.961 22.4657 151.961 22.5829C151.961 23.0908 151.537 23.5206 150.996 23.5206H129.96C129.574 23.5206 129.266 23.8722 129.343 24.2238C129.574 25.8648 130.076 27.3104 130.887 28.6388C131.813 30.1235 132.971 31.2957 134.399 32.1943C135.827 33.0538 137.371 33.4836 139.07 33.4836C140.807 33.4836 142.428 33.0538 143.933 32.1552C145.245 31.4129 146.21 30.4361 146.866 29.264C147.059 28.9123 147.523 28.7561 147.909 28.8342L149.028 29.1468C149.607 29.303 149.916 30.0063 149.607 30.5533C149.105 31.4129 148.449 32.2333 147.6 32.9366C146.48 33.9134 145.168 34.7339 143.701 35.2809C142.273 35.906 140.652 36.1795 138.954 36.1795ZM129.883 21.02H148.024C148.41 21.02 148.719 20.6684 148.642 20.3168C148.449 18.6758 147.947 17.2302 147.137 15.9408C146.21 14.4171 145.052 13.284 143.624 12.4635C142.196 11.604 140.614 11.1742 138.915 11.1742C137.178 11.1742 135.634 11.604 134.206 12.4635C132.778 13.284 131.62 14.4562 130.694 15.9408C129.922 17.2302 129.42 18.6758 129.227 20.3168C129.227 20.7075 129.536 21.02 129.883 21.02Z" fill="#222F3E"/>
<path d="M45.16 8.86904L47.8619 31.1784C48.1321 33.2883 46.6268 35.2027 44.5424 35.4762L32.3454 37C30.2611 37.2735 28.3698 35.7497 28.0996 33.6399L25.3591 11.1351C25.3205 10.7444 25.5907 10.3537 26.0153 10.3147L27.9838 10.0802C28.3698 10.0412 28.7558 10.3147 28.7943 10.7444L31.3418 31.6473C31.4576 32.7022 32.4226 33.4445 33.4647 33.3273L42.6125 32.1943C43.6547 32.0771 44.3881 31.1003 44.2723 30.0454L41.7248 9.06439C41.6862 8.67368 41.9564 8.28298 42.3809 8.2439L44.1565 8.00948C44.6196 7.93134 45.1214 8.32205 45.16 8.86904Z" fill="#ACBAC9"/>
<path d="M41.1458 30.1235L34.3911 30.944C33.928 31.0221 33.4648 30.6705 33.4262 30.1626L32.577 23.2471L31.9981 18.4023C31.9595 18.2069 32.1524 18.0897 32.3068 18.1288L33.3104 18.4414C35.3175 19.0274 37.4404 18.9883 39.4089 18.246L40.2195 17.9334C40.3739 17.8944 40.5283 17.9725 40.5283 18.1288L41.8406 29.1077C41.9564 29.6156 41.609 30.0844 41.1458 30.1235Z" fill="#0B66EF"/>
</svg>
